<?xml version="1.0" encoding="utf-8"?>
<!-- Generator: Adobe Illustrator 20.1.0, SVG Export Plug-In . SVG Version: 6.00 Build 0)  -->
<svg version="1.1" id="Layer_1" xmlns="http://www.w3.org/2000/svg" xmlns:xlink="http://www.w3.org/1999/xlink" x="0px" y="0px"
	 viewBox="0 0 72 63" style="enable-background:new 0 0 72 63;" xml:space="preserve">
<style type="text/css">
	.st0{fill:#EFEEEF;}
</style>
<g>
	<path class="st0" d="M4.9,47.3c-1.2-1.8-2.2-4.1-2.9-6.8c-0.7-2.7-1.1-5.5-1.1-8.5c0-6.4,1.6-12.1,4.9-17.3
		C9,9.6,13.8,5.6,20.2,2.6l1.7,3.3c-3.6,1.5-6.7,3.7-9.3,6.8c-2.6,3.1-4.2,6.2-4.7,9.4c-0.4,1.5-0.6,2.9-0.6,4.2
		c0,1.2,0.2,2.4,0.6,3.5c2.7-2.9,6.3-4.4,10.7-4.4c4.3,0,7.8,1.3,10.5,3.8c2.7,2.5,4,6,4,10.4c0,4.2-1.4,7.6-4.2,10.2
		c-2.8,2.6-6.4,4-10.9,4C12,53.8,7.6,51.6,4.9,47.3z M42.8,47.3c-1.2-1.8-2.2-4.1-2.9-6.8c-0.7-2.7-1.1-5.5-1.1-8.5
		c0-6.4,1.6-12.1,4.9-17.3c3.2-5.2,8.1-9.2,14.4-12.1l1.7,3.3c-3.6,1.5-6.7,3.7-9.3,6.8c-2.6,3.1-4.2,6.2-4.7,9.4
		c-0.4,1.5-0.6,2.9-0.6,4.2c0,1.2,0.2,2.4,0.6,3.5c2.7-2.9,6.3-4.4,10.7-4.4c4.3,0,7.8,1.3,10.5,3.8c2.7,2.5,4,6,4,10.4
		c0,4.2-1.4,7.6-4.2,10.2c-2.8,2.6-6.4,4-10.9,4C49.9,53.8,45.5,51.6,42.8,47.3z"/>
</g>
</svg>
