<?xml version="1.0" encoding="utf-8"?>
<!-- Generator: Adobe Illustrator 20.1.0, SVG Export Plug-In . SVG Version: 6.00 Build 0)  -->
<svg version="1.1" id="Layer_1" xmlns="http://www.w3.org/2000/svg" xmlns:xlink="http://www.w3.org/1999/xlink" x="0px" y="0px"
	 viewBox="0 0 136.4 67.6" style="enable-background:new 0 0 136.4 67.6;" xml:space="preserve">
<style type="text/css">
	.st0{fill:#2C2C2C;}
	.st1{fill:#252323;}
	.st2{fill:#FFFFFF;}
</style>
<g>
	<polygon class="st0" points="136.4,0 76.4,0 60.9,67.6 136.4,67.6 	"/>
	<polygon class="st1" points="0,0 0,67.6 57.6,67.6 73.1,0 	"/>
	<g>
		<path class="st2" d="M17.3,17.9h12.9c3.4,0,6.3,0.7,8.9,2c2.6,1.3,4.6,3.2,6,5.6c1.4,2.4,2.1,5.1,2.1,8.2c0,3.1-0.7,5.8-2.1,8.2
			c-1.4,2.4-3.4,4.3-6,5.6c-2.6,1.3-5.5,2-8.9,2H17.3V17.9z M30.1,46.8c2.8,0,5.2-0.6,7.3-1.7c2.1-1.1,3.7-2.6,4.9-4.6
			c1.1-1.9,1.7-4.2,1.7-6.7s-0.6-4.8-1.7-6.7c-1.1-1.9-2.8-3.5-4.9-4.6c-2.1-1.1-4.5-1.7-7.3-1.7h-9.4v25.9H30.1z"/>
	</g>
	<g>
		<path class="st2" d="M95.1,47.7c-2.4-1.4-4.4-3.2-5.8-5.7c-1.4-2.4-2.1-5.2-2.1-8.3c0-3.1,0.7-5.8,2.1-8.2
			c1.4-2.4,3.3-4.3,5.8-5.7c2.4-1.4,5.2-2,8.3-2c2.7,0,5.1,0.5,7.2,1.6c2.1,1.1,3.8,2.6,5,4.6l-3.2,2.1c-1-1.5-2.3-2.7-3.9-3.5
			c-1.6-0.8-3.3-1.2-5.2-1.2c-2.3,0-4.3,0.5-6.1,1.5c-1.8,1-3.2,2.5-4.2,4.3c-1,1.9-1.5,4-1.5,6.4c0,2.4,0.5,4.6,1.5,6.4
			c1,1.8,2.4,3.3,4.2,4.3c1.8,1,3.8,1.5,6.1,1.5c1.9,0,3.6-0.4,5.2-1.1c1.6-0.8,2.9-1.9,3.9-3.5l3.2,2.1c-1.2,2-2.9,3.6-5.1,4.6
			c-2.1,1.1-4.6,1.6-7.2,1.6C100.3,49.8,97.6,49.1,95.1,47.7z"/>
	</g>
</g>
</svg>
